<svg width="130" height="121" viewBox="0 0 130 121" fill="none" xmlns="http://www.w3.org/2000/svg">
<path fill-rule="evenodd" clip-rule="evenodd" d="M3.5716 119.795C12.5018 58.6701 67.3473 28.9797 124.603 22.2288C125.586 22.111 126.293 21.2184 126.176 20.2352C126.058 19.252 125.165 18.5452 124.182 18.663C65.3222 25.5997 9.19896 56.441 0.0195162 119.279C-0.125473 120.258 0.554199 121.168 1.53738 121.313C2.51604 121.458 3.42662 120.779 3.5716 119.795Z" fill="white"/>
<path fill-rule="evenodd" clip-rule="evenodd" d="M123.318 20.5717C120.772 22.4338 117.55 24.7355 117.192 25.0073C107.492 32.3744 99.4541 40.8516 92.3769 50.7967C91.8015 51.6032 91.9919 52.7268 92.7984 53.3023C93.6049 53.8777 94.7284 53.6873 95.3038 52.8808C102.163 43.2347 109.956 35.0113 119.367 27.8662C119.915 27.4494 127.16 22.2798 128.546 21.1244C129.117 20.6532 129.294 20.2092 129.326 20.1004C129.516 19.5295 129.403 19.081 129.249 18.7548C129.072 18.3878 128.633 17.8531 127.781 17.5813C126.888 17.3004 124.904 17.1735 124.405 17.101C116.889 15.9864 108.402 15.3974 100.677 13.2589C93.3102 11.22 86.6274 7.76755 82.3412 0.848995C81.8202 0.00626339 80.7101 -0.252007 79.8674 0.269035C79.0247 0.79008 78.7663 1.90011 79.2873 2.74284C84.0809 10.4769 91.4845 14.4415 99.7169 16.7205C107.397 18.8454 115.806 19.4888 123.318 20.5717Z" fill="white"/>
</svg>
